<svg xmlns="http://www.w3.org/2000/svg" viewBox="0 0 1200 880" font-family="'Segoe UI', 'Helvetica Neue', Arial, sans-serif">
  <defs>
    <!-- 3D face colours — CNN (blue) -->
    <linearGradient id="cnnFront" x1="0%" y1="0%" x2="0%" y2="100%">
      <stop offset="0%" style="stop-color:#5BA0E6;stop-opacity:1"/>
      <stop offset="100%" style="stop-color:#3A7CC7;stop-opacity:1"/>
    </linearGradient>
    <linearGradient id="cnnTop" x1="0%" y1="0%" x2="100%" y2="0%">
      <stop offset="0%" style="stop-color:#7DB8F0;stop-opacity:1"/>
      <stop offset="100%" style="stop-color:#5FA3E4;stop-opacity:1"/>
    </linearGradient>
    <linearGradient id="cnnSide" x1="0%" y1="0%" x2="0%" y2="100%">
      <stop offset="0%" style="stop-color:#4A8FD4;stop-opacity:1"/>
      <stop offset="100%" style="stop-color:#2D6AAF;stop-opacity:1"/>
    </linearGradient>

    <!-- Conv output (deeper blue) -->
    <linearGradient id="convFront" x1="0%" y1="0%" x2="0%" y2="100%">
      <stop offset="0%" style="stop-color:#4A90D9;stop-opacity:1"/>
      <stop offset="100%" style="stop-color:#2B6CB0;stop-opacity:1"/>
    </linearGradient>
    <linearGradient id="convTop" x1="0%" y1="0%" x2="100%" y2="0%">
      <stop offset="0%" style="stop-color:#6AACEF;stop-opacity:1"/>
      <stop offset="100%" style="stop-color:#4A90D9;stop-opacity:1"/>
    </linearGradient>
    <linearGradient id="convSide" x1="0%" y1="0%" x2="0%" y2="100%">
      <stop offset="0%" style="stop-color:#3578C2;stop-opacity:1"/>
      <stop offset="100%" style="stop-color:#1F559A;stop-opacity:1"/>
    </linearGradient>

    <!-- Input tensor (grey) -->
    <linearGradient id="inFront" x1="0%" y1="0%" x2="0%" y2="100%">
      <stop offset="0%" style="stop-color:#9CA3AF;stop-opacity:1"/>
      <stop offset="100%" style="stop-color:#6B7280;stop-opacity:1"/>
    </linearGradient>
    <linearGradient id="inTop" x1="0%" y1="0%" x2="100%" y2="0%">
      <stop offset="0%" style="stop-color:#BCC3CE;stop-opacity:1"/>
      <stop offset="100%" style="stop-color:#9CA3AF;stop-opacity:1"/>
    </linearGradient>
    <linearGradient id="inSide" x1="0%" y1="0%" x2="0%" y2="100%">
      <stop offset="0%" style="stop-color:#7C8592;stop-opacity:1"/>
      <stop offset="100%" style="stop-color:#545C68;stop-opacity:1"/>
    </linearGradient>

    <!-- Pooled block (teal) -->
    <linearGradient id="poolFront" x1="0%" y1="0%" x2="0%" y2="100%">
      <stop offset="0%" style="stop-color:#34B3A0;stop-opacity:1"/>
      <stop offset="100%" style="stop-color:#22907F;stop-opacity:1"/>
    </linearGradient>
    <linearGradient id="poolTop" x1="0%" y1="0%" x2="100%" y2="0%">
      <stop offset="0%" style="stop-color:#52D4BF;stop-opacity:1"/>
      <stop offset="100%" style="stop-color:#34B3A0;stop-opacity:1"/>
    </linearGradient>
    <linearGradient id="poolSide" x1="0%" y1="0%" x2="0%" y2="100%">
      <stop offset="0%" style="stop-color:#28A18E;stop-opacity:1"/>
      <stop offset="100%" style="stop-color:#17756A;stop-opacity:1"/>
    </linearGradient>

    <!-- MLP (orange) -->
    <linearGradient id="mlpGrad" x1="0%" y1="0%" x2="100%" y2="100%">
      <stop offset="0%" style="stop-color:#F09542;stop-opacity:1"/>
      <stop offset="100%" style="stop-color:#D47A28;stop-opacity:1"/>
    </linearGradient>
    <linearGradient id="mlpGrad2" x1="0%" y1="0%" x2="100%" y2="100%">
      <stop offset="0%" style="stop-color:#E88A38;stop-opacity:1"/>
      <stop offset="100%" style="stop-color:#C06E22;stop-opacity:1"/>
    </linearGradient>

    <!-- Fusion (green) -->
    <linearGradient id="fuseGrad" x1="0%" y1="0%" x2="100%" y2="100%">
      <stop offset="0%" style="stop-color:#5AB54E;stop-opacity:1"/>
      <stop offset="100%" style="stop-color:#429438;stop-opacity:1"/>
    </linearGradient>

    <!-- Output (purple) -->
    <linearGradient id="outGrad" x1="0%" y1="0%" x2="100%" y2="100%">
      <stop offset="0%" style="stop-color:#B07AA1;stop-opacity:1"/>
      <stop offset="100%" style="stop-color:#8E5E82;stop-opacity:1"/>
    </linearGradient>

    <!-- Dense cylinder gradients -->
    <linearGradient id="denseCNN" x1="0%" y1="0%" x2="100%" y2="0%">
      <stop offset="0%" style="stop-color:#3578C2;stop-opacity:1"/>
      <stop offset="40%" style="stop-color:#5BA0E6;stop-opacity:1"/>
      <stop offset="100%" style="stop-color:#3578C2;stop-opacity:1"/>
    </linearGradient>

    <filter id="shadow3d" x="-5%" y="-5%" width="115%" height="120%">
      <feDropShadow dx="2" dy="4" stdDeviation="4" flood-color="#000" flood-opacity="0.18"/>
    </filter>
    <filter id="shadowSm" x="-3%" y="-3%" width="108%" height="112%">
      <feDropShadow dx="1" dy="2" stdDeviation="2" flood-color="#000" flood-opacity="0.14"/>
    </filter>

    <marker id="arr" markerWidth="8" markerHeight="6" refX="8" refY="3" orient="auto">
      <path d="M0,0 L8,3 L0,6 Z" fill="#555"/>
    </marker>
    <marker id="arrW" markerWidth="8" markerHeight="6" refX="8" refY="3" orient="auto">
      <path d="M0,0 L8,3 L0,6 Z" fill="#999"/>
    </marker>
  </defs>

  <!-- Background -->
  <rect width="1200" height="880" fill="#F7F8FA" rx="10"/>

  <!-- Title -->
  <text x="600" y="38" text-anchor="middle" font-size="22" font-weight="700" fill="#1a1a2e" letter-spacing="0.5">Multi-View CNN (MV-CNN) Architecture</text>
  <text x="600" y="58" text-anchor="middle" font-size="12" fill="#888" font-style="italic">3D Tensor Visualisation</text>

  <!-- ============================================================ -->
  <!-- CNN BRANCH HEADER -->
  <!-- ============================================================ -->
  <rect x="25" y="72" width="780" height="30" rx="5" fill="#E3EEFA" stroke="#4A90D9" stroke-width="1.2"/>
  <text x="415" y="93" text-anchor="middle" font-size="14" font-weight="600" fill="#2B5EA7">CNN Branch — Proteomic Features</text>

  <!-- ============================================================ -->
  <!-- 3D INPUT TENSOR  6 × 27 × 2 -->
  <!-- ============================================================ -->
  <g transform="translate(50, 130)" filter="url(#shadow3d)">
    <!-- Front face -->
    <rect x="0" y="10" width="54" height="108" rx="2" fill="url(#inFront)" stroke="#545C68" stroke-width="0.8"/>
    <!-- Top face (parallelogram) -->
    <polygon points="0,10 14,0 68,0 54,10" fill="url(#inTop)" stroke="#545C68" stroke-width="0.8"/>
    <!-- Side face (parallelogram) -->
    <polygon points="54,10 68,0 68,108 54,118" fill="url(#inSide)" stroke="#545C68" stroke-width="0.8"/>
    <!-- Channel separator line -->
    <line x1="0" y1="64" x2="54" y2="64" stroke="#fff" stroke-width="0.8" stroke-dasharray="3,2" opacity="0.5"/>
    <line x1="54" y1="64" x2="68" y2="54" stroke="#fff" stroke-width="0.8" stroke-dasharray="3,2" opacity="0.5"/>
    <!-- Labels on front face -->
    <text x="27" y="45" text-anchor="middle" font-size="9" font-weight="600" fill="#fff">Ch 0</text>
    <text x="27" y="56" text-anchor="middle" font-size="8" fill="#ddd">Phage</text>
    <text x="27" y="85" text-anchor="middle" font-size="9" font-weight="600" fill="#fff">Ch 1</text>
    <text x="27" y="96" text-anchor="middle" font-size="8" fill="#ddd">Host</text>
  </g>
  <!-- Dimension labels for input -->
  <text x="55" y="252" text-anchor="start" font-size="10" font-weight="600" fill="#6B7280">6</text>
  <text x="100" y="252" text-anchor="start" font-size="10" font-weight="600" fill="#6B7280">27</text>
  <text x="120" y="128" text-anchor="start" font-size="10" font-weight="600" fill="#6B7280">2</text>
  <line x1="57" y1="248" x2="57" y2="240" stroke="#6B7280" stroke-width="0.8" marker-end="url(#arrW)"/>
  <line x1="100" y1="248" x2="106" y2="242" stroke="#6B7280" stroke-width="0.8" marker-end="url(#arrW)"/>
  <line x1="120" y1="132" x2="118" y2="138" stroke="#6B7280" stroke-width="0.8" marker-end="url(#arrW)"/>
  <text x="77" y="268" text-anchor="middle" font-size="11" font-weight="600" fill="#555">Input</text>
  <text x="77" y="281" text-anchor="middle" font-size="10" fill="#888">(6 × 27 × 2)</text>

  <!-- Arrow: Input → Conv2D -->
  <line x1="133" y1="188" x2="175" y2="188" stroke="#555" stroke-width="1.8" marker-end="url(#arr)"/>

  <!-- ============================================================ -->
  <!-- 3D CONV2D OUTPUT  6 × 27 × 32 -->
  <!-- ============================================================ -->
  <g transform="translate(178, 120)" filter="url(#shadow3d)">
    <rect x="0" y="30" width="54" height="108" rx="2" fill="url(#convFront)" stroke="#1F559A" stroke-width="0.8"/>
    <polygon points="0,30 40,0 94,0 54,30" fill="url(#convTop)" stroke="#1F559A" stroke-width="0.8"/>
    <polygon points="54,30 94,0 94,108 54,138" fill="url(#convSide)" stroke="#1F559A" stroke-width="0.8"/>
    <line x1="6" y1="28" x2="46" y2="-2" stroke="#fff" stroke-width="0.4" opacity="0.3"/>
    <line x1="12" y1="27" x2="52" y2="-3" stroke="#fff" stroke-width="0.4" opacity="0.25"/>
    <line x1="18" y1="26" x2="58" y2="-4" stroke="#fff" stroke-width="0.4" opacity="0.2"/>
    <line x1="24" y1="25" x2="64" y2="-5" stroke="#fff" stroke-width="0.4" opacity="0.15"/>
    <text x="27" y="78" text-anchor="middle" font-size="10" font-weight="600" fill="#fff">Conv2D</text>
    <text x="27" y="92" text-anchor="middle" font-size="8.5" fill="#C5DFFF">32 × 3×3</text>
    <text x="27" y="104" text-anchor="middle" font-size="8.5" fill="#C5DFFF">ReLU</text>
  </g>
  <text x="215" y="283" text-anchor="middle" font-size="10" font-weight="600" fill="#2B6CB0">Conv2D</text>
  <text x="215" y="296" text-anchor="middle" font-size="9" fill="#888">6 × 27 × 32</text>

  <!-- Arrow: Conv2D → BatchNorm -->
  <line x1="278" y1="188" x2="314" y2="188" stroke="#555" stroke-width="1.8" marker-end="url(#arr)"/>

  <!-- ============================================================ -->
  <!-- 3D BATCHNORM BLOCK -->
  <!-- ============================================================ -->
  <g transform="translate(317, 125)" filter="url(#shadow3d)">
    <rect x="0" y="25" width="54" height="100" rx="2" fill="url(#convFront)" stroke="#1F559A" stroke-width="0.8" opacity="0.85"/>
    <polygon points="0,25 35,0 89,0 54,25" fill="url(#convTop)" stroke="#1F559A" stroke-width="0.8" opacity="0.85"/>
    <polygon points="54,25 89,0 89,100 54,125" fill="url(#convSide)" stroke="#1F559A" stroke-width="0.8" opacity="0.85"/>
    <path d="M8,65 Q16,55 24,65 Q32,75 42,65" stroke="#fff" stroke-width="1.5" fill="none" opacity="0.5"/>
    <text x="27" y="90" text-anchor="middle" font-size="10" font-weight="600" fill="#fff">Batch</text>
    <text x="27" y="103" text-anchor="middle" font-size="10" font-weight="600" fill="#fff">Norm</text>
  </g>
  <text x="354" y="283" text-anchor="middle" font-size="10" font-weight="600" fill="#2B6CB0">BatchNorm</text>

  <!-- Arrow: BatchNorm → MaxPool -->
  <line x1="412" y1="188" x2="448" y2="188" stroke="#555" stroke-width="1.8" marker-end="url(#arr)"/>

  <!-- ============================================================ -->
  <!-- 3D MAXPOOL OUTPUT  2 × 9 × 32 -->
  <!-- ============================================================ -->
  <g transform="translate(451, 148)" filter="url(#shadow3d)">
    <rect x="0" y="18" width="30" height="60" rx="2" fill="url(#poolFront)" stroke="#17756A" stroke-width="0.8"/>
    <polygon points="0,18 30,0 60,0 30,18" fill="url(#poolTop)" stroke="#17756A" stroke-width="0.8"/>
    <polygon points="30,18 60,0 60,60 30,78" fill="url(#poolSide)" stroke="#17756A" stroke-width="0.8"/>
    <line x1="15" y1="18" x2="15" y2="78" stroke="#fff" stroke-width="0.4" opacity="0.3"/>
    <line x1="0" y1="48" x2="30" y2="48" stroke="#fff" stroke-width="0.4" opacity="0.3"/>
    <text x="15" y="52" text-anchor="middle" font-size="8" font-weight="600" fill="#fff">Pool</text>
  </g>
  <text x="476" y="283" text-anchor="middle" font-size="10" font-weight="600" fill="#22907F">MaxPool</text>
  <text x="476" y="296" text-anchor="middle" font-size="9" fill="#888">2 × 9 × 32</text>

  <!-- Arrow: MaxPool → Dropout -->
  <line x1="514" y1="188" x2="546" y2="188" stroke="#555" stroke-width="1.8" marker-end="url(#arr)"/>

  <!-- ============================================================ -->
  <!-- DROPOUT (3D fading block) -->
  <!-- ============================================================ -->
  <g transform="translate(549, 148)" filter="url(#shadow3d)">
    <rect x="0" y="18" width="30" height="60" rx="2" fill="url(#convFront)" stroke="#1F559A" stroke-width="0.8" opacity="0.7"/>
    <polygon points="0,18 30,0 60,0 30,18" fill="url(#convTop)" stroke="#1F559A" stroke-width="0.8" opacity="0.7"/>
    <polygon points="30,18 60,0 60,60 30,78" fill="url(#convSide)" stroke="#1F559A" stroke-width="0.8" opacity="0.7"/>
    <circle cx="8" cy="35" r="3" fill="#F7F8FA" opacity="0.5"/>
    <circle cx="22" cy="50" r="3" fill="#F7F8FA" opacity="0.5"/>
    <circle cx="12" cy="65" r="3" fill="#F7F8FA" opacity="0.5"/>
    <circle cx="25" cy="30" r="2.5" fill="#F7F8FA" opacity="0.4"/>
  </g>
  <text x="574" y="283" text-anchor="middle" font-size="10" font-weight="600" fill="#2B6CB0">Dropout</text>
  <text x="574" y="296" text-anchor="middle" font-size="9" fill="#888">p = 0.3</text>

  <!-- Arrow: Dropout → Flatten -->
  <line x1="612" y1="195" x2="640" y2="195" stroke="#555" stroke-width="1.8" marker-end="url(#arr)"/>

  <!-- ============================================================ -->
  <!-- FLATTEN — tall thin bar -->
  <!-- ============================================================ -->
  <g transform="translate(643, 130)" filter="url(#shadowSm)">
    <rect x="0" y="0" width="14" height="140" rx="3" fill="url(#denseCNN)" stroke="#1F559A" stroke-width="0.8"/>
    <line x1="2" y1="15" x2="12" y2="15" stroke="#fff" stroke-width="0.4" opacity="0.4"/>
    <line x1="2" y1="35" x2="12" y2="35" stroke="#fff" stroke-width="0.4" opacity="0.4"/>
    <line x1="2" y1="55" x2="12" y2="55" stroke="#fff" stroke-width="0.4" opacity="0.4"/>
    <line x1="2" y1="75" x2="12" y2="75" stroke="#fff" stroke-width="0.4" opacity="0.4"/>
    <line x1="2" y1="95" x2="12" y2="95" stroke="#fff" stroke-width="0.4" opacity="0.4"/>
    <line x1="2" y1="115" x2="12" y2="115" stroke="#fff" stroke-width="0.4" opacity="0.4"/>
    <line x1="2" y1="130" x2="12" y2="130" stroke="#fff" stroke-width="0.4" opacity="0.4"/>
  </g>
  <text x="650" y="283" text-anchor="middle" font-size="10" font-weight="600" fill="#2B6CB0">Flatten</text>
  <text x="650" y="296" text-anchor="middle" font-size="9" fill="#888">576-dim</text>

  <!-- Arrow: Flatten → Dense 1024 -->
  <line x1="660" y1="200" x2="660" y2="324" stroke="#555" stroke-width="1.8" marker-end="url(#arr)"/>

  <!-- ============================================================ -->
  <!-- DENSE LAYERS (CNN branch) -->
  <!-- ============================================================ -->

  <!-- Dense 1024 -->
  <g transform="translate(622, 328)" filter="url(#shadowSm)">
    <rect x="0" y="0" width="76" height="40" rx="10" fill="url(#cnnFront)" stroke="#2B6CB0" stroke-width="1"/>
    <text x="38" y="18" text-anchor="middle" font-size="11" font-weight="600" fill="#fff">Dense</text>
    <text x="38" y="33" text-anchor="middle" font-size="10" fill="#C5DFFF">1024, ReLU</text>
  </g>

  <!-- Arrow down -->
  <line x1="660" y1="370" x2="660" y2="394" stroke="#555" stroke-width="1.8" marker-end="url(#arr)"/>

  <!-- BN + Dropout -->
  <g transform="translate(612, 398)" filter="url(#shadowSm)">
    <rect x="0" y="0" width="96" height="36" rx="10" fill="url(#cnnFront)" stroke="#2B6CB0" stroke-width="1" opacity="0.85"/>
    <text x="48" y="16" text-anchor="middle" font-size="10" font-weight="600" fill="#fff">BN + Drop</text>
    <text x="48" y="30" text-anchor="middle" font-size="9" fill="#C5DFFF">p = 0.3</text>
  </g>

  <!-- Arrow down -->
  <line x1="660" y1="436" x2="660" y2="458" stroke="#555" stroke-width="1.8" marker-end="url(#arr)"/>

  <!-- Dense 128 (embedding) -->
  <g transform="translate(622, 462)" filter="url(#shadowSm)">
    <rect x="0" y="0" width="76" height="46" rx="10" fill="url(#cnnFront)" stroke="#2B6CB0" stroke-width="1.2"/>
    <text x="38" y="18" text-anchor="middle" font-size="11" font-weight="600" fill="#fff">Dense</text>
    <text x="38" y="33" text-anchor="middle" font-size="10" fill="#C5DFFF">128, ReLU</text>
    <text x="38" y="44" text-anchor="middle" font-size="8" fill="#A0C8F0" font-style="italic">embedding</text>
  </g>

  <!-- 128-dim label -->
  <rect x="580" y="516" width="80" height="20" rx="4" fill="#E3EEFA"/>
  <text x="620" y="530" text-anchor="middle" font-size="10" font-weight="600" fill="#2B6CB0">128-dim</text>

  <!-- Arrow from Dense 128 down-right to Fusion (converging at x=835) -->
  <line x1="660" y1="510" x2="660" y2="555" stroke="#555" stroke-width="1.8"/>
  <line x1="660" y1="555" x2="835" y2="620" stroke="#555" stroke-width="1.8" marker-end="url(#arr)"/>


  <!-- ============================================================ -->
  <!-- MLP BRANCH -->
  <!-- ============================================================ -->
  <rect x="835" y="72" width="340" height="30" rx="5" fill="#FDF0E3" stroke="#E8833A" stroke-width="1.2"/>
  <text x="1005" y="93" text-anchor="middle" font-size="14" font-weight="600" fill="#B85C1F">MLP Branch — Metadata</text>

  <!-- MLP Input -->
  <g transform="translate(960, 125)" filter="url(#shadowSm)">
    <rect x="0" y="0" width="100" height="50" rx="8" fill="url(#inFront)" stroke="#545C68" stroke-width="1"/>
    <text x="50" y="22" text-anchor="middle" font-size="12" font-weight="600" fill="#fff">Input</text>
    <text x="50" y="38" text-anchor="middle" font-size="10" fill="#ddd">(4,)</text>
  </g>
  <text x="1010" y="190" text-anchor="middle" font-size="9" fill="#888">morph (3) + log₁₀(conc)</text>

  <!-- Arrow -->
  <line x1="1010" y1="198" x2="1010" y2="222" stroke="#555" stroke-width="1.8" marker-end="url(#arr)"/>

  <!-- Dense 64 -->
  <g transform="translate(960, 226)" filter="url(#shadowSm)">
    <rect x="0" y="0" width="100" height="44" rx="10" fill="url(#mlpGrad)" stroke="#C06E22" stroke-width="1"/>
    <text x="50" y="20" text-anchor="middle" font-size="11" font-weight="600" fill="#fff">Dense (64)</text>
    <text x="50" y="36" text-anchor="middle" font-size="10" fill="#FFE0C2">ReLU</text>
  </g>

  <!-- Arrow -->
  <line x1="1010" y1="272" x2="1010" y2="296" stroke="#555" stroke-width="1.8" marker-end="url(#arr)"/>

  <!-- Dense 32 -->
  <g transform="translate(965, 300)" filter="url(#shadowSm)">
    <rect x="0" y="0" width="90" height="44" rx="10" fill="url(#mlpGrad)" stroke="#C06E22" stroke-width="1"/>
    <text x="45" y="20" text-anchor="middle" font-size="11" font-weight="600" fill="#fff">Dense (32)</text>
    <text x="45" y="36" text-anchor="middle" font-size="10" fill="#FFE0C2">ReLU</text>
  </g>

  <!-- Arrow -->
  <line x1="1010" y1="346" x2="1010" y2="370" stroke="#555" stroke-width="1.8" marker-end="url(#arr)"/>

  <!-- Dense 16 -->
  <g transform="translate(970, 374)" filter="url(#shadowSm)">
    <rect x="0" y="0" width="80" height="44" rx="10" fill="url(#mlpGrad2)" stroke="#A05A18" stroke-width="1"/>
    <text x="40" y="20" text-anchor="middle" font-size="11" font-weight="600" fill="#fff">Dense (16)</text>
    <text x="40" y="36" text-anchor="middle" font-size="10" fill="#FFE0C2">ReLU</text>
  </g>

  <!-- 16-dim label -->
  <rect x="1055" y="388" width="72" height="20" rx="4" fill="#FDF0E3"/>
  <text x="1091" y="402" text-anchor="middle" font-size="10" font-weight="600" fill="#D4722E">16-dim</text>

  <!-- Arrow from Dense 16 down-left to Fusion (converging symmetrically at x=835) -->
  <line x1="1010" y1="420" x2="1010" y2="555" stroke="#555" stroke-width="1.8"/>
  <line x1="1010" y1="555" x2="835" y2="620" stroke="#555" stroke-width="1.8" marker-end="url(#arr)"/>


  <!-- ============================================================ -->
  <!-- FUSION SECTION  (centred at x=835, midpoint of both branches) -->
  <!-- ============================================================ -->
  <rect x="725" y="596" width="220" height="28" rx="5" fill="#E6F4E4" stroke="#59A14F" stroke-width="1.2"/>
  <text x="835" y="615" text-anchor="middle" font-size="14" font-weight="600" fill="#3E7F35">Fusion</text>

  <!-- Concatenate -->
  <g transform="translate(775, 636)" filter="url(#shadowSm)">
    <rect x="0" y="0" width="120" height="46" rx="12" fill="url(#fuseGrad)" stroke="#357A2E" stroke-width="1.2"/>
    <text x="60" y="20" text-anchor="middle" font-size="11" font-weight="700" fill="#fff">Concatenate</text>
    <text x="60" y="36" text-anchor="middle" font-size="9.5" fill="#C8F0C2">128 + 16 = 144</text>
  </g>

  <!-- Arrow -->
  <line x1="835" y1="684" x2="835" y2="706" stroke="#555" stroke-width="1.8" marker-end="url(#arr)"/>

  <!-- Dense 32 (fusion) -->
  <g transform="translate(787, 710)" filter="url(#shadowSm)">
    <rect x="0" y="0" width="96" height="40" rx="10" fill="url(#fuseGrad)" stroke="#357A2E" stroke-width="1"/>
    <text x="48" y="17" text-anchor="middle" font-size="11" font-weight="600" fill="#fff">Dense (32)</text>
    <text x="48" y="32" text-anchor="middle" font-size="10" fill="#C8F0C2">ReLU</text>
  </g>

  <!-- Arrow -->
  <line x1="835" y1="752" x2="835" y2="774" stroke="#555" stroke-width="1.8" marker-end="url(#arr)"/>

  <!-- Dense 1 — Sigmoid output -->
  <g transform="translate(787, 778)" filter="url(#shadowSm)">
    <rect x="0" y="0" width="96" height="40" rx="10" fill="url(#outGrad)" stroke="#6E4A64" stroke-width="1.2"/>
    <text x="48" y="17" text-anchor="middle" font-size="11" font-weight="600" fill="#fff">Dense (1)</text>
    <text x="48" y="32" text-anchor="middle" font-size="10" fill="#E8D4E0">Sigmoid</text>
  </g>

  <!-- Arrow down to output -->
  <line x1="835" y1="820" x2="835" y2="838" stroke="#555" stroke-width="1.5"/>
  <!-- Output capsule -->
  <rect x="770" y="838" width="130" height="16" rx="8" fill="#B07AA1" opacity="0.2"/>
  <text x="835" y="851" text-anchor="middle" font-size="10" font-weight="600" fill="#8E5E82">P(interaction) ∈ [0,1]</text>


  <!-- ============================================================ -->
  <!-- DETAIL PANELS (left side) -->
  <!-- ============================================================ -->

  <!-- Phage channel -->
  <g transform="translate(30, 330)">
    <rect x="0" y="0" width="180" height="88" rx="6" fill="#fff" stroke="#4A90D9" stroke-width="1.2" stroke-dasharray="5,3"/>
    <text x="90" y="18" text-anchor="middle" font-size="11" font-weight="600" fill="#2B6CB0">Channel 0 — Phage</text>
    <text x="90" y="34" text-anchor="middle" font-size="10" fill="#555">6 × 27 feature matrix</text>
    <line x1="20" y1="42" x2="160" y2="42" stroke="#E3EEFA" stroke-width="1"/>
    <text x="90" y="57" text-anchor="middle" font-size="9" fill="#777">Rows: mean, max, min,</text>
    <text x="90" y="69" text-anchor="middle" font-size="9" fill="#777">std, var, median</text>
    <text x="90" y="83" text-anchor="middle" font-size="9" fill="#777">Cols: 27 protein features</text>
  </g>

  <!-- Host channel -->
  <g transform="translate(30, 430)">
    <rect x="0" y="0" width="180" height="88" rx="6" fill="#fff" stroke="#4A90D9" stroke-width="1.2" stroke-dasharray="5,3"/>
    <text x="90" y="18" text-anchor="middle" font-size="11" font-weight="600" fill="#2B6CB0">Channel 1 — Host</text>
    <text x="90" y="34" text-anchor="middle" font-size="10" fill="#555">6 × 27 feature matrix</text>
    <line x1="20" y1="42" x2="160" y2="42" stroke="#E3EEFA" stroke-width="1"/>
    <text x="90" y="57" text-anchor="middle" font-size="9" fill="#777">Rows: mean, max, min,</text>
    <text x="90" y="69" text-anchor="middle" font-size="9" fill="#777">std, var, median</text>
    <text x="90" y="83" text-anchor="middle" font-size="9" fill="#777">Cols: 27 protein features</text>
  </g>

  <!-- Metadata detail -->
  <g transform="translate(30, 530)">
    <rect x="0" y="0" width="180" height="68" rx="6" fill="#fff" stroke="#E8833A" stroke-width="1.2" stroke-dasharray="5,3"/>
    <text x="90" y="18" text-anchor="middle" font-size="11" font-weight="600" fill="#D4722E">Metadata (4-dim)</text>
    <line x1="20" y1="26" x2="160" y2="26" stroke="#FDF0E3" stroke-width="1"/>
    <text x="90" y="42" text-anchor="middle" font-size="9" fill="#777">Morphology one-hot (× 3)</text>
    <text x="90" y="56" text-anchor="middle" font-size="9" fill="#777">+ log₁₀(concentration)</text>
  </g>


  <!-- ============================================================ -->
  <!-- TRAINING CONFIG (bottom-left, below detail panels) -->
  <!-- ============================================================ -->
  <g transform="translate(30, 630)">
    <rect x="0" y="0" width="280" height="148" rx="8" fill="#fff" stroke="#ccc" stroke-width="1.2"/>
    <rect x="0" y="0" width="280" height="28" rx="8" fill="#F5F5F5" stroke="#ccc" stroke-width="1"/>
    <text x="140" y="19" text-anchor="middle" font-size="13" font-weight="600" fill="#333">Training Configuration</text>
    <text x="18" y="48" font-size="10.5" fill="#555">Optimiser:</text>
    <text x="88" y="48" font-size="10.5" fill="#333" font-weight="500">Adam (lr = 1 × 10⁻⁴)</text>
    <text x="18" y="66" font-size="10.5" fill="#555">Loss:</text>
    <text x="88" y="66" font-size="10.5" fill="#333" font-weight="500">Binary Cross-Entropy</text>
    <text x="18" y="84" font-size="10.5" fill="#555">Epochs:</text>
    <text x="88" y="84" font-size="10.5" fill="#333" font-weight="500">100 (early stop, pat. 20)</text>
    <text x="18" y="102" font-size="10.5" fill="#555">LR Sched:</text>
    <text x="88" y="102" font-size="10.5" fill="#333" font-weight="500">ReduceOnPlateau (×0.5, p=10)</text>
    <text x="18" y="120" font-size="10.5" fill="#555">Batch:</text>
    <text x="88" y="120" font-size="10.5" fill="#333" font-weight="500">32</text>
    <text x="18" y="138" font-size="10.5" fill="#555">Scaling:</text>
    <text x="88" y="138" font-size="10.5" fill="#333" font-weight="500">StandardScaler (per-train fit)</text>
  </g>

  <!-- ============================================================ -->
  <!-- TENSOR SIZE KEY (bottom-left, below training config) -->
  <!-- ============================================================ -->
  <g transform="translate(30, 790)">
    <rect x="0" y="0" width="280" height="78" rx="8" fill="#fff" stroke="#ccc" stroke-width="1"/>
    <text x="140" y="18" text-anchor="middle" font-size="11" font-weight="600" fill="#444">Tensor Size Key</text>
    <!-- Small input block -->
    <rect x="20" y="30" width="18" height="12" rx="1" fill="url(#inFront)" stroke="#545C68" stroke-width="0.6"/>
    <polygon points="20,30 28,24 46,24 38,30" fill="url(#inTop)" stroke="#545C68" stroke-width="0.6"/>
    <polygon points="38,30 46,24 46,36 38,42" fill="url(#inSide)" stroke="#545C68" stroke-width="0.6"/>
    <text x="62" y="40" font-size="9.5" fill="#555">Input  (6 × 27 × 2)</text>

    <!-- Larger conv block -->
    <rect x="20" y="52" width="18" height="12" rx="1" fill="url(#convFront)" stroke="#1F559A" stroke-width="0.6"/>
    <polygon points="20,52 32,44 50,44 38,52" fill="url(#convTop)" stroke="#1F559A" stroke-width="0.6"/>
    <polygon points="38,52 50,44 50,56 38,64" fill="url(#convSide)" stroke="#1F559A" stroke-width="0.6"/>
    <text x="62" y="62" font-size="9.5" fill="#555">Conv  (6 × 27 × 32) — deeper = more filters</text>

    <!-- Pooled block -->
    <rect x="186" y="30" width="12" height="8" rx="1" fill="url(#poolFront)" stroke="#17756A" stroke-width="0.6"/>
    <polygon points="186,30 194,25 206,25 198,30" fill="url(#poolTop)" stroke="#17756A" stroke-width="0.6"/>
    <polygon points="198,30 206,25 206,33 198,38" fill="url(#poolSide)" stroke="#17756A" stroke-width="0.6"/>
    <text x="218" y="40" font-size="9.5" fill="#555">Pooled (2 × 9 × 32)</text>
  </g>

</svg>